Coordinates
version=1
nRows=12
nColumns=38
inDegrees=yes

Units are S.I. units (second, meters, Newtons, ...)
Angles are in degrees.

endheader
time	pelvis_tilt	pelvis_list	pelvis_rotation	pelvis_tx	pelvis_ty	pelvis_tz	hip_flexion_r	hip_adduction_r	hip_rotation_r	knee_angle_r	ankle_angle_r	subtalar_angle_r	mtp_angle_r	hip_flexion_l	hip_adduction_l	hip_rotation_l	knee_angle_l	ankle_angle_l	subtalar_angle_l	mtp_angle_l	lumbar_extension	lumbar_bending	lumbar_rotation	arm_flex_r	arm_add_r	arm_rot_r	elbow_flex_r	pro_sup_r	wrist_flex_r	wrist_dev_r	arm_flex_l	arm_add_l	arm_rot_l	elbow_flex_l	pro_sup_l	wrist_flex_l	wrist_dev_l
      2.48333333	     -0.14751826	      0.37546161	     -4.15275486	      0.84012345	      0.98594694	     -0.19914313	     27.46757338	      5.02757158	      0.45205561	    -15.79329993	      3.27817519	      0.00000000	      0.00000000	    -24.60864816	      1.59264319	    -10.30407341	    -45.28532599	    -30.97453133	      0.00000000	      0.00000000	     -4.12771931	     -2.81458499	    -14.63174193	    -40.58668826	    -29.13325210	     17.00518307	     79.51867790	      7.97486807	      0.00000000	      0.00000000	     -8.75479865	    -22.15250269	      6.53139513	    109.96766544	      7.13840976	      0.00000000	      0.00000000
      2.50000000	     -0.92130881	     -3.25103383	     -4.28979528	      0.83773721	      0.97438914	     -0.19569014	     29.13604077	      9.07699351	     -1.24307851	    -20.47849469	      4.47668505	      0.00000000	      0.00000000	    -20.40428323	     -4.18653680	    -13.34156624	    -56.15219904	    -28.94570228	      0.00000000	      0.00000000	     -3.62751595	      1.57947724	    -13.50835282	    -38.78747148	    -29.54974177	     17.28878420	     78.73032226	      7.74327332	      0.00000000	      0.00000000	     -8.72769557	    -21.47156870	      8.33995372	    105.86858531	      7.05587875	      0.00000000	      0.00000000
      2.51666667	      0.40372397	     -4.50953811	     -4.77042865	      0.83388428	      0.96509009	     -0.19338583	     29.13244720	     10.93784202	     -0.66621700	    -27.67671313	      7.53154903	      0.00000000	      0.00000000	    -18.14230632	     -6.46926574	    -13.60006332	    -65.04163241	    -27.65241412	      0.00000000	      0.00000000	     -5.90928696	      3.32139240	    -12.48580296	    -35.19766666	    -29.45724085	     17.12933464	     78.00000216	      7.78696044	      0.00000000	      0.00000000	     -9.26224295	    -20.84500771	      8.91066519	    101.26121601	      6.76374976	      0.00000000	      0.00000000
      2.53333333	      1.63232269	     -5.60303475	     -5.15474352	      0.82983586	      0.95508681	     -0.19239092	     28.87038527	     12.47949331	     -0.65855310	    -35.53347513	     10.87102723	      0.00000000	      0.00000000	    -15.27567652	     -8.46861296	    -13.39849551	    -73.36248500	    -25.98093877	      0.00000000	      0.00000000	     -8.67542159	      5.38782514	    -11.09841341	    -31.34920347	    -29.25404985	     17.18615671	     77.47789773	      7.85376071	      0.00000000	      0.00000000	    -10.34314357	    -20.20715802	      9.98424515	     96.64626381	      6.45465988	      0.00000000	      0.00000000
      2.55000000	      2.91787128	     -6.55500989	     -5.14924330	      0.82603856	      0.94454653	     -0.19082633	     27.92500753	     13.71207919	     -1.18599078	    -43.34804929	     14.23507568	      0.00000000	      0.00000000	    -11.70884529	    -10.62413122	    -12.66877721	    -81.41532086	    -23.42475225	      0.00000000	      0.00000000	    -11.15874747	      6.68276267	     -9.40393954	    -27.40036802	    -28.93019044	     17.50872882	     77.34674027	      7.92920018	      0.00000000	      0.00000000	    -11.37146427	    -19.36837157	     11.33243678	     91.91197166	      6.15002715	      0.00000000	      0.00000000
      2.56666667	      0.16117197	     -7.92412744	     -3.28691372	      0.82053647	      0.93236327	     -0.19281091	     29.83535169	     14.17183791	     -4.36338563	    -48.31831474	     16.52593845	      0.00000000	      0.00000000	     -1.65367686	    -13.47275564	     -8.90005183	    -89.89301002	    -19.26586917	      0.00000000	      0.00000000	     -7.29949787	      9.21232938	     -9.08245819	    -22.72749715	    -29.79127967	     21.06061087	     76.42658899	      7.65458548	      0.00000000	      0.00000000	     -9.75037554	    -18.50309175	     16.45533457	     80.95346840	      6.56629968	      0.00000000	      0.00000000
      2.58333333	      0.88683922	     -7.98373541	     -3.55001531	      0.81492018	      0.92763736	     -0.19212697	     25.96804192	     14.78120518	     -3.14172344	    -50.74285799	     19.35579570	      0.00000000	      0.00000000	      4.25457325	    -13.73955848	     -7.43469855	    -95.57235038	    -16.52469276	      0.00000000	      0.00000000	     -9.69940308	      9.55050627	     -6.27201634	    -18.37247900	    -28.93719817	     20.38806789	     77.26976731	      8.14925021	      0.00000000	      0.00000000	    -11.74694212	    -17.88204277	     17.35163743	     77.86311983	      6.55751486	      0.00000000	      0.00000000
      2.60000000	      1.19594186	     -7.87045006	     -3.57344880	      0.81033001	      0.92661189	     -0.19203284	     21.10091802	     15.03265825	     -1.67636061	    -50.79505346	     21.76589557	      0.00000000	      0.00000000	     10.98806567	    -13.39240207	     -5.73996326	    -99.57621456	    -12.84086311	      0.00000000	      0.00000000	    -10.57407678	      9.50617895	     -3.61027524	    -14.22508681	    -28.57721520	     19.85716583	     78.90854679	      8.78749265	      0.00000000	      0.00000000	    -13.82950832	    -17.29378515	     18.23163257	     74.54497863	      6.67049554	      0.00000000	      0.00000000
      2.61666667	      0.99175649	     -7.46235189	     -3.89252555	      0.80720424	      0.92938590	     -0.19196877	     15.48030153	     14.53842533	     -0.53201556	    -48.49919607	     22.86193250	      0.00000000	      0.00000000	     18.10304426	    -12.42171679	     -4.57898160	   -101.36915622	     -9.73279916	      0.00000000	      0.00000000	    -10.56978528	      9.06366470	     -0.54224067	    -10.66309533	    -28.48488820	     19.22824964	     81.16064737	      9.50903339	      0.00000000	      0.00000000	    -16.72691217	    -17.23459046	     18.91050325	     72.30277775	      6.94629911	      0.00000000	      0.00000000
      2.63333333	     -0.21527602	     -6.70581299	     -4.26524218	      0.80775245	      0.93470062	     -0.19205138	      9.71162586	     13.91158255	      2.49610776	    -43.99426516	     22.98280980	      0.00000000	      0.00000000	     25.24458171	    -10.79913207	     -3.81077813	   -100.55577059	     -5.00204525	      0.00000000	      0.00000000	     -8.19123079	      8.77641599	      1.60705592	     -8.07577033	    -28.97809961	     18.70141730	     86.07235131	      9.99152609	      0.00000000	      0.00000000	    -20.50355423	    -17.26533065	     19.32689476	     69.89026711	      6.79444198	      0.00000000	      0.00000000
      2.65000000	     -1.38561707	     -5.72193375	     -4.94821937	      0.80670042	      0.94279955	     -0.19241125	      3.89876141	     12.20775627	      3.90010706	    -38.46242065	     20.86388531	      0.00000000	      0.00000000	     31.99232148	     -9.40217182	     -4.09124997	    -97.89781118	     -2.19517819	      0.00000000	      0.00000000	     -6.53746768	      8.08409262	      4.35597436	     -5.21551613	    -29.31693778	     17.72467946	     90.64414305	     10.73142031	      0.00000000	      0.00000000	    -24.20213623	    -17.81263871	     19.49479822	     69.54612668	      7.14851201	      0.00000000	      0.00000000
      2.66666667	     -1.99560802	     -5.07882895	     -6.14348616	      0.81012985	      0.95209060	     -0.19135326	     -3.47640064	     10.71276126	      6.88208267	    -31.11837950	     16.71963791	      0.00000000	      0.00000000	     36.32639031	     -8.81443042	     -5.04884713	    -92.98350116	      1.45081466	      0.00000000	      0.00000000	     -5.93816494	      7.92562114	      8.59613141	     -7.13277319	    -30.29544414	     13.31090224	    102.11218982	      9.94365309	      0.00000000	      0.00000000	    -29.27008684	    -18.53362062	     16.78640402	     71.71964005	      6.42285233	      0.00000000	      0.00000000
